<?xml version="1.0" encoding="UTF-8" standalone="no"?>
<!-- Created with Inkscape (http://www.inkscape.org/) -->

<svg
   width="172.42627mm"
   height="52.916668mm"
   viewBox="0 0 172.42627 52.916668"
   version="1.1"
   id="svg5"
   inkscape:version="1.1.1 (3bf5ae0d25, 2021-09-20, custom)"
   sodipodi:docname="logo.svg"
   xmlns:inkscape="http://www.inkscape.org/namespaces/inkscape"
   xmlns:sodipodi="http://sodipodi.sourceforge.net/DTD/sodipodi-0.dtd"
   xmlns="http://www.w3.org/2000/svg"
   xmlns:svg="http://www.w3.org/2000/svg">
  <sodipodi:namedview
     id="namedview7"
     pagecolor="#ffffff"
     bordercolor="#666666"
     borderopacity="1.0"
     inkscape:pageshadow="2"
     inkscape:pageopacity="0.0"
     inkscape:pagecheckerboard="0"
     inkscape:document-units="mm"
     showgrid="false"
     fit-margin-top="0"
     fit-margin-left="0"
     fit-margin-right="0"
     fit-margin-bottom="0"
     inkscape:zoom="0.64765011"
     inkscape:cx="159.03649"
     inkscape:cy="185.28523"
     inkscape:window-width="1892"
     inkscape:window-height="1023"
     inkscape:window-x="12"
     inkscape:window-y="41"
     inkscape:window-maximized="1"
     inkscape:current-layer="g29" />
  <defs
     id="defs2" />
  <g
     inkscape:label="Layer 1"
     inkscape:groupmode="layer"
     id="layer1"
     transform="translate(-17.018332,-83.914537)">
    <g
       id="g29"
       transform="matrix(0.68917143,0,0,0.68917143,123.51104,-20.099643)">
      <g
         id="g20">
        <g
           aria-label="{"
           id="text741"
           style="font-stretch:condensed;font-size:76.0228px;font-family:'Amatic SC';-inkscape-font-specification:'Amatic SC Condensed';fill:#1a1a1a;stroke-width:1.90057">
          <path
             d="m -149.65735,184.83259 q 2.58477,0 5.32159,-2.50875 2.81285,-2.6608 4.02921,-6.38592 l 4.86546,-14.21626 q 3.42102,-10.03501 11.63149,-10.03501 h 5.47364 l -1.59648,4.71342 h -3.80114 q -3.64909,0 -5.92978,6.61398 l -4.86546,14.14024 q -1.74852,4.86546 -5.24557,7.6783 -2.6608,2.12864 -4.78944,2.43273 l -0.076,0.22807 q 3.95319,0.76023 3.95319,5.47364 0,2.35671 -0.91228,4.94148 l -4.78943,13.91217 q -0.83625,2.50876 -0.83625,4.02921 0,2.58478 2.20466,2.58478 h 3.80114 l -1.59648,4.71341 h -5.47364 q -2.35671,0 -3.95319,-1.6725 -1.59648,-1.6725 -1.59648,-4.02921 0,-2.28068 0.76023,-4.3333 l 4.78944,-13.98819 q 0.38011,-1.06432 0.53216,-2.12864 0.22806,-1.06432 0.30409,-2.05262 0.076,-2.05261 -1.06432,-3.49704 -1.06432,-1.52046 -2.88887,-1.52046 z m 1.06432,9.6549 h 0.38011 v 0.38011 q 0,1.97659 -0.76023,4.02921 l -4.78943,13.98819 q -0.76023,2.28069 -0.76023,4.56137 0,4.63739 4.10523,6.08183 1.59648,4.18125 5.92978,4.18125 h 6.0058 l 2.05261,-6.23387 h -5.09352 l 1.29238,-3.80114 h -2.20466 q 0.15205,-0.53216 0.22807,-0.9883 0.15205,-0.45613 0.30409,-0.83625 l 4.78944,-13.91217 q 0.98829,-2.73682 0.98829,-5.16955 0,-3.72512 -2.73682,-5.47364 1.82455,-0.83625 3.34501,-2.05262 3.80114,-3.11693 5.47364,-8.05841 l 4.86546,-14.14024 q 2.20466,-6.08183 5.24557,-6.08183 h 4.3333 l 2.05261,-6.23387 h -5.09352 l 1.29238,-3.80114 h -6.46193 q -8.6666,0 -12.3157,10.56717 l -4.86546,14.21627 q -0.60818,1.82454 -1.6725,3.345 -0.98829,1.52046 -2.28068,2.6608 -1.21637,1.06432 -2.58478,1.74852 -1.36841,0.60818 -2.66079,0.60818 l -2.20466,6.61399 q 3.345,0 4.0292,3.04091 z"
             style="-inkscape-font-specification:'Marketing Script Shadow'"
             id="path177" />
        </g>
        <g
           aria-label="}"
           id="text3519"
           style="font-size:76.0228px;font-family:'Marketing Script Shadow';-inkscape-font-specification:'Marketing Script Shadow';fill:#1a1a1a;stroke-width:1.90057">
          <path
             d="m 86.928142,190.15419 q -2.660798,0 -5.321596,2.58477 -2.73682,2.50875 -4.029208,6.30989 l -4.865459,14.06422 q -3.421026,10.03501 -11.555465,10.03501 h -5.473641 l 1.596478,-4.71341 h 3.80114 q 3.573072,0 5.853756,-6.61399 l 4.865459,-13.98819 q 1.748524,-4.86546 5.245573,-7.6783 2.660797,-2.12864 4.789436,-2.43273 l 0.07602,-0.22807 q -3.953186,-0.76023 -3.953186,-5.47364 0,-2.28069 0.912274,-4.94148 l 4.789436,-14.06422 q 0.836251,-2.50875 0.836251,-4.02921 0,-2.58477 -2.204662,-2.58477 h -3.801139 l 1.596478,-4.71342 h 5.473642 q 2.356706,0 3.953185,1.6725 1.596479,1.67251 1.596479,4.02921 0,2.12864 -0.760228,4.3333 l -4.789436,14.14024 q -0.380114,1.14034 -0.608183,2.20466 -0.152045,0.9883 -0.228068,1.9766 -0.07602,2.05261 0.988296,3.57307 1.140342,1.44443 2.964889,1.44443 z m 6.537961,-2.05262 q -3.345003,0 -4.105231,-3.04091 l 0.304091,-0.76023 h -0.380114 v -0.45613 q 0,-1.74853 0.760228,-3.95319 l 4.789436,-14.14024 q 0.836251,-2.50875 0.836251,-4.56137 0,-4.56137 -4.257277,-6.08182 -1.444433,-4.18126 -5.853755,-4.18126 h -6.005801 l -2.052616,6.23387 h 5.017505 l -1.216365,3.80114 h 2.128638 q -0.152045,0.83625 -0.456136,1.82455 L 78.18552,176.8502 q -0.988296,2.73682 -0.988296,5.16955 0,3.72512 2.660798,5.47364 -1.520456,0.6842 -3.26898,2.05262 -3.80114,3.11693 -5.473642,8.05841 l -4.865459,13.9882 q -2.204661,6.08182 -5.16955,6.08182 h -4.333299 l -1.976593,6.23387 h 5.017505 l -1.292388,3.80114 h 6.461938 q 8.590576,0 12.23967,-10.56717 l 4.865459,-14.06422 q 0.608182,-1.82454 1.596479,-3.345 1.064319,-1.52046 2.280684,-2.58478 1.292387,-1.14034 2.660798,-1.74852 1.36841,-0.6842 2.660797,-0.6842 z"
             id="path182" />
        </g>
        <g
           aria-label="SOTC"
           id="text13975"
           style="font-stretch:condensed;font-size:92.5976px;font-family:'Amatic SC';-inkscape-font-specification:'Amatic SC Condensed';word-spacing:0px;fill:#1a1a1a;stroke-width:0.482279">
          <path
             d="m -84.568391,189.65884 c 3.421673,5.49342 3.763634,11.62053 1.214197,18.29525 -1.028824,2.929 -2.973364,5.54806 -5.555998,7.86688 -5.353583,4.72372 -6.744932,4.76778 -12.945188,4.55126 -4.62706,-0.16158 -6.81574,-1.16455 -8.98179,-2.81531 -1.35257,-1.06642 -2.33497,-2.11992 -2.85144,-3.24981 -1.36109,-3.47573 -1.89577,-6.73729 -1.69659,-9.78792 0.14102,-1.38488 0.40689,-3.69195 2.45249,-3.89848 3.16256,-0.35283 5.39324,-0.5529 6.4112,-0.51735 1.85405,-0.0279 2.38991,0.54673 2.41459,2.49333 -0.006,0.18508 0.0731,0.55848 0.0505,1.20626 -0.0388,1.1105 0.0344,1.66898 0.27968,2.60408 0.92746,2.6267 2.46512,3.6996 4.983119,3.2316 2.332919,-0.47446 4.730471,-2.79974 5.28043,-5.28219 1.393701,-5.41792 -0.335497,-6.31219 -3.958411,-11.34937 l -0.711245,-0.85872 -4.997223,-0.17451 c -1.20627,0.0505 -1.62373,-1.26121 -0.84785,-2.25331 l 2.12639,-2.52005 -2.03797,-2.66548 c -3.25598,-4.93172 -3.98426,-10.60905 -2.102,-16.75114 2.28797,-7.14711 8.021413,-12.13552 14.273379,-13.39967 14.463454,-2.92312 18.403652,6.29457 17.484408,14.04541 -0.03878,1.11049 -0.613416,1.64635 -1.644296,1.98097 -2.712779,0.73915 -5.227549,1.11461 -7.448538,1.03705 -1.110494,-0.0388 -1.742124,-0.52411 -1.891659,-1.54853 l -0.286143,-2.41899 c -1.124301,-4.94993 -6.989944,-4.13557 -8.836656,0.98857 -1.325837,3.47455 -0.979469,6.8222 1.039104,10.04292 0.172156,0.37663 1.237408,1.71099 1.674261,2.46747 l 4.441977,0.15512 c 1.203036,0.042 1.623731,1.26121 0.755312,2.25008 l -1.45275,1.80235 c 1.336412,1.52913 2.136967,2.48362 3.36468,4.47223 z m 8.863099,-17.66538 c -2.24361,0.57023 -4.295675,0.96184 -6.245503,1.07906 l 0.07315,0.55848 c 0.05699,1.02119 0.688623,1.50651 1.799118,1.54529 2.220988,0.0776 4.735759,-0.29789 7.448538,-1.03705 1.030879,-0.33461 1.605516,-0.87047 1.736837,-1.97773 0.1701,-2.21776 0.05611,-4.26013 -0.702431,-6.41766 -0.251771,-0.75003 -0.628399,-0.57787 -0.657483,0.255 -0.01616,0.46271 -0.153942,1.75505 -0.262641,2.21453 -0.537033,2.11229 -1.316142,3.19693 -3.189587,3.78008 z m -11.301777,-2.71101 -0.235613,-1.21273 c -0.614297,-3.63496 -4.34826,-2.83882 -5.674097,0.63574 -1.127828,3.11085 -0.765302,5.99579 1.345812,9.21975 -0.136608,-1.39459 -0.304357,-4.55068 0.309059,-6.19703 0.814657,-2.1026 2.34379,-3.43901 4.254839,-2.44573 z m -19.514151,52.0387 c -1.56674,-0.24002 -1.76798,0.21622 -0.58757,0.90602 1.81205,1.17513 4.37412,2.09848 7.150353,2.19543 4.534518,0.15835 8.555801,-0.90573 13.909383,-5.62944 2.582634,-2.31882 3.738371,-3.57561 5.345063,-7.13302 1.814395,-4.19872 3.096165,-9.06463 1.400458,-13.57123 -0.248539,-0.84257 -0.813481,-0.58434 -0.750024,0.25177 0.26029,3.15932 -0.411295,6.47142 -1.641359,9.85666 -1.131059,3.2034 -3.177836,6.09685 -6.143561,8.77291 -6.308079,5.52426 -8.430063,5.26485 -14.352703,5.05803 -1.94336,-0.0679 -3.13347,-0.48004 -4.33004,-0.70713 z m 6.665609,-13.10942 c -0.0473,-1.2988 0.08725,-2.49861 -0.151589,-3.6188 -0.22269,-1.58289 -1.13194,-2.07791 -2.42429,-2.2157 -0.01,0.27763 -0.0517,1.48066 0.34637,3.34764 0.33139,1.12342 1.49887,2.18339 2.229509,2.48686 z"
             style="-inkscape-font-specification:'BERNIER Shade Italic'"
             id="path187" />
          <path
             d="m -34.677806,185.07086 3.257156,2.24478 c 0.453011,0.29378 0.529394,0.75972 0.414232,1.40428 -0.111931,0.55201 -0.402481,0.91248 -1.063196,1.26003 l -4.238681,1.98302 -2.525935,11.30824 c -0.22063,1.01149 -1.137523,3.38848 -2.750678,7.13096 -0.306708,0.82318 -0.795267,1.54735 -1.47214,2.3576 -10.034699,11.41664 -25.278143,10.1431 -28.591998,-1.09111 -0.576693,-2.05853 -0.492671,-4.4646 0.165988,-7.40653 l 3.15551,-13.41729 -3.164615,-2.24156 c -0.44978,-0.38632 -0.529394,-0.75972 -0.417464,-1.31173 0.115163,-0.64456 0.405713,-1.00503 1.066428,-1.35257 l 4.146139,-1.98626 c 1.716567,-6.7038 2.813254,-11.57617 3.366445,-14.15116 1.116077,-5.42762 4.794223,-9.93188 11.03767,-13.60532 1.324661,-0.78763 2.451313,-1.21156 3.753353,-1.3514 7.534616,-0.84873 11.941046,0.32434 14.958182,4.13586 3.020368,3.71898 3.021249,9.0003 1.83202,13.86943 z m -17.244688,21.54212 c 0.491791,-0.81672 0.996508,-2.00359 1.325837,-3.47456 l 7.385085,-31.05917 c 0.322867,-1.28588 0.358414,-2.30384 0.298189,-3.23248 -0.396898,-4.55391 -7.449419,-4.24426 -9.187431,0.4204 -0.204472,0.54878 -0.421871,1.46773 -0.7512,2.9387 l -7.068682,29.95837 c -0.434797,1.8379 -0.668354,3.21955 -0.509124,3.96635 0.607833,3.82004 5.971991,4.10001 8.507326,0.48239 z m 21.838846,-33.70468 -2.711018,11.30178 2.625525,1.75946 1.959818,-8.36308 c 0.869594,-3.6758 1.193636,-7.64861 -0.173917,-10.93926 -0.34108,-0.84579 -0.909254,-0.49502 -0.938338,0.33785 0.02791,1.85406 -0.32081,3.88027 -0.76207,5.90325 z m -20.357888,-3.39788 c -0.415407,1.28265 -0.520875,1.64958 -0.744736,2.75361 l -7.068683,29.95838 c -0.53057,1.92721 -0.658659,2.94193 -0.579044,3.31532 0.225918,1.49036 1.502105,2.09085 2.711604,1.94778 -0.06992,-0.65102 0.07433,-2.12845 0.512355,-4.05889 l 7.068683,-29.95837 c 0.42187,-1.46774 0.639269,-2.38669 0.843741,-2.93547 0.412176,-1.19011 1.184821,-2.08967 2.225396,-2.70191 -1.35257,-1.06643 -4.234274,-0.79644 -4.969316,1.67955 z m 22.560953,22.56155 -2.261824,-1.56145 c -0.475632,0.354 -0.855492,0.6187 -1.420434,0.87693 l -3.297111,1.55264 -2.308537,10.38929 c -0.655427,2.84939 -2.485981,7.51082 -4.71784,10.39781 -6.078929,6.92208 -14.226961,9.41717 -21.045925,8.34516 -0.644557,-0.11516 -1.136347,0.70155 -0.495022,0.90925 11.173688,3.72574 24.97114,-1.35168 29.117869,-19.27442 l 1.541179,-6.98788 4.238681,-1.98303 c 0.660715,-0.34754 0.951265,-0.70801 1.063196,-1.26003 0.115162,-0.64455 0.03878,-1.11049 -0.414232,-1.40427 z"
             style="-inkscape-font-specification:'BERNIER Shade Italic'"
             id="path189" />
          <path
             d="m 9.9493916,155.97297 -22.2098866,-0.77559 c -2.128448,-0.0743 -3.232479,-0.29819 -4.087971,0.32052 -0.379859,0.26469 -0.769414,0.80701 -0.887808,1.54411 -0.629574,2.10906 -1.166607,4.22135 -1.512094,6.15502 -0.342256,1.84113 0.196833,2.32322 2.044425,2.4804 0.366933,0.10546 1.107263,0.13132 2.125216,0.16687 1.850824,0.0646 3.701648,0.12926 4.40643,1.17307 0.615472,0.94803 0.2958375,2.14137 -0.461826,5.26515 l -2.723944,11.67194 -4.803623,2.24126 c -0.568173,0.35077 -0.858723,0.71124 -0.970654,1.26326 -0.207704,0.64133 -0.131321,1.10726 0.32169,1.40104 l 3.710168,2.53857 -5.537199,23.24811 c -0.652195,2.75685 -1.562624,4.94875 0.840215,5.12532 2.217757,0.1701 4.531287,0.25089 6.94059,0.24237 2.227451,-0.10753 2.486861,-2.22951 3.2509872,-5.53837 l 5.428499,-22.78864 4.61530875,-2.15518 c 0.47240081,-0.26147 0.85872365,-0.71125 1.06642725,-1.35257 0.1119309,-0.55202 -0.060225,-0.92864 -0.4174634,-1.31174 l -3.5283164,-2.43956 2.50977747,-10.84553 c 0.86636234,-3.58326 1.10638213,-5.14999 2.53004773,-6.11947 1.334356,-1.06525 3.2744895,-0.90485 5.1253134,-0.84022 1.6657415,0.0582 2.961318,0.10341 3.81681,-0.51529 0.383091,-0.35724 0.680105,-0.90279 0.894272,-1.7292 0.303476,-0.73063 0.629574,-2.10906 1.064371,-3.94695 0.984756,-4.32035 0.799674,-4.32682 -3.5497624,-4.4787 z m 5.1132674,4.81126 c -0.428333,1.65281 -0.7512,2.9387 -0.965366,3.7651 -0.319635,1.19334 -0.728579,2.29091 -1.49153,2.91285 -1.430129,1.15456 -3.552113,0.89515 -5.3103957,0.83375 -2.6836947,-0.0937 -3.3347147,-0.0238 -3.8135787,0.42275 -0.5681736,0.35077 -0.8813449,1.35903 -1.7477072,4.94229 l -2.28914735,9.83404 2.52975285,1.84877 1.6337203,-6.98466 c 1.2979277,-5.32861 1.5217894,-6.43264 2.0931946,-6.87596 0.7597192,-0.52939 1.5958216,-0.59285 4.4645982,-0.49267 1.850824,0.0646 3.248637,-0.16451 4.675534,-1.22653 1.334356,-1.06526 1.548523,-1.89166 2.197487,-4.55597 0.872826,-3.76833 0.888984,-4.23104 -1.976562,-4.42376 z m -30.06972,6.73288 -0.09254,-0.003 -0.108699,0.45947 c -0.342256,1.84113 0.196833,2.32323 2.044425,2.4804 0.274392,0.10224 0.737098,0.1184 1.292346,0.13778 0.434797,-1.83789 0.355182,-2.21129 0.179794,-2.49538 -0.264697,-0.37986 -1.001795,-0.49825 -3.315325,-0.57904 z m 15.94851737,23.53514 -3.67373877,1.72479 -5.2078689,21.77715 c -0.7608947,3.21632 -1.1677827,6.90827 -5.2525217,7.13624 -1.483891,0.0408 -2.96455,-0.0109 -4.445209,-0.0626 -0.335792,1.65604 -0.374572,2.76654 1.380479,2.92048 2.217757,0.1701 2.492149,0.27234 4.904684,0.17127 3.5262598,-0.15482 4.5227672,-2.15841 5.2868935,-5.46727 l 5.42849897,-22.78864 4.61530883,-2.15518 c 0.4724008,-0.26146 0.8587236,-0.71124 1.0664273,-1.35257 0.1119308,-0.55201 -0.060225,-0.92864 -0.4174635,-1.31173 L 2.2758124,189.987 c -0.3863228,0.44978 -0.8619552,0.80378 -1.33435603,1.06525 z"
             style="-inkscape-font-specification:'BERNIER Shade Italic'"
             id="path191" />
          <path
             d="m 46.612927,198.55161 c -0.9213,5.15646 -1.87374,8.5514 -2.678702,10.37637 -5.542191,12.77802 -23.768694,17.33017 -30.256859,4.13203 -0.956552,-1.79383 -0.965072,-4.20313 -0.21064,-7.23437 l 3.583843,-15.07011 -3.257156,-2.24479 c -0.357238,-0.38309 -0.529394,-0.75972 -0.417463,-1.31173 0.115162,-0.64456 0.498254,-1.0018 1.066427,-1.35257 l 4.238681,-1.98303 c 1.831729,-7.34836 2.918721,-11.9431 3.283599,-14.43202 1.12254,-5.6127 6.425592,-11.54268 12.981034,-13.53745 1.311735,-0.41747 2.428692,-0.56377 3.354104,-0.53145 2.686926,0.001 4.62706,0.16158 5.830095,0.20359 0.737098,0.11839 1.659279,0.24325 2.389913,0.54673 2.006822,0.90396 4.153484,3.10997 6.340981,6.79987 2.01211,3.40581 -0.09078,10.55939 -0.835517,13.313 -0.632805,2.2016 -1.392525,2.73099 -3.613513,2.65344 -2.039138,0.0214 -3.889962,-0.0432 -5.737554,-0.20036 -2.584691,-0.27557 -2.016517,-0.62635 -0.794972,-6.42089 0.678048,-3.49718 -1.088754,-5.96788 -3.679908,-6.05837 -1.295576,-0.0452 -2.518001,0.468 -3.664044,1.44717 -2.384625,1.95512 -2.644034,4.0771 -3.18753,6.37447 -2.595856,10.65722 -4.756914,19.47654 -6.304557,26.64951 -0.322866,1.28589 -0.6425,2.47923 -0.68128,3.58972 -0.265872,2.30707 0.476514,4.92731 3.338827,5.21257 2.862314,0.28526 5.824808,-2.29825 6.777248,-5.69319 l 1.195692,-5.05422 c 0.626342,-2.01652 1.296752,-2.64169 3.240117,-2.57382 1.946597,-0.0247 4.075044,0.0496 6.20026,0.21652 1.199804,0.13455 1.82174,0.8975 1.498874,2.18338 z m 6.982309,-22.17845 c -0.97183,3.95019 -1.17307,4.40643 -8.946531,4.13497 -0.447723,2.20807 -0.272335,2.49215 1.575257,2.64933 1.940133,0.1604 2.958086,0.19595 4.904683,0.17127 1.850824,0.0646 3.647886,-0.98446 4.188151,-3.18929 0.744736,-2.75361 2.157826,-8.72678 1.001209,-12.7513 -0.07961,-0.37339 -0.334617,-1.03087 -0.612241,-1.04057 -0.370164,-0.0129 -0.287318,0.26793 -0.319634,1.19334 -0.218574,3.60588 -1.266787,7.09013 -1.790894,8.83225 z m -18.173327,-7.58368 c -1.624906,1.42572 -1.861694,2.89992 -2.408422,5.28983 -2.595855,10.65722 -4.756914,19.47654 -6.304556,26.64951 -0.322866,1.28589 -0.546728,2.38992 -0.579044,3.31533 l -0.09577,0.0893 c -0.166868,2.12521 0.62076,3.44988 2.094956,3.68666 0.02909,-0.83287 0.246483,-1.75182 0.463882,-2.67076 1.640183,-7.16974 4.555673,-19.0203 7.058987,-29.68076 0.764126,-3.30886 1.690714,-5.96347 3.851478,-6.81455 -0.446548,-0.47887 -0.992101,-0.77588 -1.639889,-0.7985 -0.832871,-0.0291 -1.490354,0.22592 -2.441619,0.93393 z m 13.056824,32.05098 -0.647788,-0.0226 c -0.690975,3.86734 -1.438943,6.7135 -2.240674,8.44593 -4.526294,10.21919 -15.062183,14.76193 -22.96902,13.00336 -1.01149,-0.22063 -1.219193,0.42069 -0.396017,0.7274 8.512614,2.98423 19.683365,-1.16572 24.148259,-9.62663 0.990044,-1.81851 2.775355,-5.18437 3.789196,-10.33759 0.230325,-1.28911 -0.388379,-2.1446 -1.683956,-2.18985 z"
             style="-inkscape-font-specification:'BERNIER Shade Italic'"
             id="path193" />
        </g>
      </g>
    </g>
  </g>
</svg>
